<?xml version="1.0" standalone="no"?>
<!DOCTYPE svg PUBLIC "-//W3C//DTD SVG 1.1//EN" "http://www.w3.org/Graphics/SVG/1.1/DTD/svg11.dtd" >
<svg xmlns="http://www.w3.org/2000/svg">
<metadata></metadata>
<defs>
<font id="alexisregular" horiz-adv-x="1287" >
<font-face units-per-em="2048" ascent="1638" descent="-410" />
<missing-glyph horiz-adv-x="702" />
<glyph horiz-adv-x="2048" />
<glyph horiz-adv-x="2048" />
<glyph unicode="&#xd;" horiz-adv-x="1462" />
<glyph unicode=" "  horiz-adv-x="702" />
<glyph unicode="&#x09;" horiz-adv-x="702" />
<glyph unicode="&#xa0;" horiz-adv-x="702" />
<glyph unicode="!" horiz-adv-x="386" d="M41 304v457h246v-457h-246zM44 0v176h246v-176h-246z" />
<glyph unicode="&#x22;" horiz-adv-x="690" d="M32 585h106l-59 -140h135l64 140v176h-246v-176zM354 585h105l-58 -140h134l65 140v176h-246v-176z" />
<glyph unicode="#" horiz-adv-x="930" d="M18 91v234h807v-234h-807zM18 451v234h807v-234h-807zM111 -82v939h234v-939h-234zM503 -82v939h234v-939h-234z" />
<glyph unicode="$" horiz-adv-x="1345" d="M29 0v167h509v140h-497q0 88 29 170t83.5 145t129 101t168.5 38h713v-161h-380v-147h322q32 0 61.5 -23t48.5 -58.5t30.5 -73.5t11.5 -64q0 -41 -16 -82t-44 -74.5t-66 -55.5t-82 -22h-1021zM366 483q0 -6 11 -30h161v147h-87q-23 -18 -36.5 -34t-31.5 -39 q-9 -15 -13 -24t-4 -20zM784 167h117q12 0 23.5 26t11.5 41q0 18 -11.5 45.5t-17.5 27.5h-123v-140z" />
<glyph unicode="%" horiz-adv-x="1398" d="M29 0l18 15l913 746h313l-934 -761h-310zM126 445v175h246v-175h-246zM930 140v176h246v-176h-246z" />
<glyph unicode="&#x26;" horiz-adv-x="1380" d="M15 398h169h38q-41 35 -80.5 83.5t-67 98t-43.5 96.5t-16 85h1223v-161h-834q18 -61 50 -104t64 -43h605l199 -450h-833q-56 0 -111.5 17.5t-105.5 45.5t-89.5 63t-65.5 70q-56 70 -76.5 115.5t-25.5 83.5zM395 307q6 -29 17.5 -49.5t38 -47t44 -35t35.5 -14.5h453 l-58 146h-530z" />
<glyph unicode="'" horiz-adv-x="374" d="M32 585h106l-59 -140h135l64 140v176h-246v-176z" />
<glyph unicode="(" horiz-adv-x="550" d="M29 170q0 -35 25 -70.5t60 -66t76 -49.5t73 -19h182v161h-59q-88 18 -108 73v354q20 56 108 73h59v164h-182q-32 0 -73 -20.5t-76 -51t-60 -67.5t-25 -69v-199v-213z" />
<glyph unicode=")" horiz-adv-x="550" d="M29 -35v161h59q85 18 108 73v354q-23 56 -108 73h-59v164h182q32 0 73 -20.5t76 -51t60 -67.5t25 -69v-199v-213q0 -35 -25 -70.5t-60 -66t-76 -49.5t-73 -19h-182z" />
<glyph unicode="*" horiz-adv-x="550" d="M38 486l50 -94l108 61v-119h105v119l109 -61l49 94l-102 58l105 65l-52 90l-109 -61v123h-105v-123l-108 61l-50 -90l102 -65z" />
<glyph unicode="+" horiz-adv-x="649" d="M23 307v146h182v188h158v-188h193v-146h-202v-202h-149v202h-182z" />
<glyph unicode="," horiz-adv-x="374" d="M32 0h106l-59 -140h140l59 140v176h-246v-176z" />
<glyph unicode="-" horiz-adv-x="661" d="M23 307v146h539v-146h-539z" />
<glyph unicode="." horiz-adv-x="374" d="M32 0h246v176h-246v-176z" />
<glyph unicode="/" horiz-adv-x="1398" d="M29 0h310l934 761h-313l-913 -746z" />
<glyph unicode="0" d="M32 146q9 -23 34 -49.5t55.5 -48.5t61.5 -36.5t51 -11.5h963v568v41q-6 26 -31 52.5t-57 48t-66 36.5t-57 15h-954v-615zM263 278v304h585q44 -15 67.5 -38t35.5 -58v-310h-571q-61 15 -84.5 35t-32.5 67z" />
<glyph unicode="1" horiz-adv-x="473" d="M29 600v161h123q32 0 73 -20.5t76 -50t60 -64.5t25 -70v-556h-248v527q-26 61 -109 73z" />
<glyph unicode="2" horiz-adv-x="1345" d="M29 234q0 26 10.5 64t31 73.5t48 58.5t62.5 23h729q9 9 10.5 16.5t1.5 13.5q0 12 -6 20.5t-12 23.5q-18 23 -42 48l-25 25h-714v161h714q91 0 167 -38t130 -101t83 -145t29 -170h-866q-6 0 -17.5 -27.5t-11.5 -45.5q0 -15 11.5 -41t23.5 -26h872v-167h-1021 q-44 0 -80.5 22t-66 55.5t-45.5 74.5t-16 82z" />
<glyph unicode="3" horiz-adv-x="1322" d="M15 0h1223q0 38 -16.5 85t-45.5 95t-65.5 96.5t-80.5 86.5h38h170q-6 38 -26.5 83.5t-76.5 115.5q-26 35 -67 68.5t-89.5 61.5t-104 47t-110.5 22h-723v-161h682q18 -6 35 -15t44 -35q26 -26 37.5 -46.5t17.5 -50.5h-728v-146h605q32 0 64.5 -42.5t49.5 -103.5h-833v-161 z" />
<glyph unicode="4" horiz-adv-x="1293" d="M15 193v240l883 328h304v-761h-245v193h-942zM266 339h691v243z" />
<glyph unicode="5" horiz-adv-x="1339" d="M32 521q0 -29 12 -66t31 -70.5t46.5 -55.5t59.5 -22h729q9 -12 10.5 -17.5t1.5 -14.5t-6 -17.5t-12 -23.5q-12 -15 -28 -32.5t-26 -27.5l-13 -13h-714v-161h714q91 0 167 38t130 101t83 145t29 169h-866q-3 0 -8.5 7.5t-10 20.5t-7.5 25t-3 21v67h907v167h-1226v-234v-6z " />
<glyph unicode="6" horiz-adv-x="1345" d="M32 609q6 26 31 52.5t57 48t65.5 36.5t57.5 15h954v-179h-817q-44 -15 -67 -38t-35 -58v-35h828q32 0 61.5 -23.5t48.5 -57.5t30.5 -72t11.5 -64q0 -41 -16 -82t-44 -74.5t-68.5 -55.5t-90.5 -19l-44 -3h-784q-47 18 -100 44q-50 26 -76 114v410zM278 176h570 q44 0 66 21.5t22 36.5q0 18 -11.5 45.5t-17.5 27.5l-629 -3v-128z" />
<glyph unicode="7" horiz-adv-x="1053" d="M29 600v161h702q32 0 73.5 -20.5t76.5 -50t59.5 -64.5t24.5 -70v-556h-248v527q-23 56 -108 73h-580z" />
<glyph unicode="8" horiz-adv-x="1328" d="M15 0q0 38 16 85t45 95t67 96.5t79 86.5h-38h-169q6 38 26 83.5t79 115.5q26 32 64 67t88 63t105.5 47t111.5 22h275q56 0 111 -19t103.5 -48.5t89.5 -63t67 -68.5q56 -70 76.5 -115.5t26.5 -83.5h-208q44 -38 80.5 -86.5t65.5 -96.5t45.5 -95t16.5 -85h-1223zM395 453 h462q-6 29 -17.5 50t-37.5 47t-44 35t-35 15h-100h-93q-18 -6 -35.5 -15t-43.5 -35t-38 -46.5t-18 -50.5zM404 161h444q-18 61 -49.5 103.5t-64.5 42.5h-123h-93q-32 0 -64.5 -42.5t-49.5 -103.5z" />
<glyph unicode="9" horiz-adv-x="1345" d="M32 524q0 38 16 80.5t44 76t69 55.5t91 19l43 3h785q44 -18 96 -44q53 -29 79 -114v-410l3 -41q-6 -26 -31 -52.5t-57 -48.5t-65.5 -36.5t-57.5 -14.5h-953v179h816q44 15 67.5 38t34.5 58v35h-828q-35 0 -62.5 23.5t-46.5 57t-31 70t-12 66.5zM354 524q0 -18 11.5 -45.5 t17.5 -27.5l629 2v129h-570q-44 0 -66 -22t-22 -36z" />
<glyph unicode=":" horiz-adv-x="374" d="M32 0v176h246v-176h-246zM32 585v176h246v-176h-246z" />
<glyph unicode=";" horiz-adv-x="374" d="M32 0h106l-59 -140h140l59 140v176h-246v-176zM32 585h246v176h-246v-176z" />
<glyph unicode="&#x3c;" horiz-adv-x="895" d="M29 354l389 -354h389l-421 392l421 369h-310z" />
<glyph unicode="=" horiz-adv-x="661" d="M23 161v146h539v-146h-539zM23 453v147h539v-147h-539z" />
<glyph unicode="&#x3e;" horiz-adv-x="895" d="M29 0l422 392l-422 369h310l468 -407l-389 -354h-389z" />
<glyph unicode="?" horiz-adv-x="1345" d="M35 266h100h216q0 18 11.5 29.5t17.5 11.5h866q0 88 -29 170t-83 145t-129 101t-168 38h-714v-161h714l25 -25q24 -25 42 -48q18 -26 18 -44q0 -9 -12 -30h-729q-32 0 -61 -23t-50 -58q-18 -35 -26.5 -58.5t-8.5 -47.5zM56 0h245v176h-245v-176z" />
<glyph unicode="@" d="M32 -3h966v176h-720v313q12 35 35 58.5t67 37.5h585v-304h232v483h-954q-23 0 -57 -15t-66 -36.5t-57 -48t-31 -52.5v-41v-571zM462 199l182 143l193 -143v208l-193 152l-182 -146v-214z" />
<glyph unicode="A" d="M32 0v603q12 29 37 58t57 51t64 35.5t59 13.5h953v-761h-245v304h-691v-304h-234zM266 451h691v131h-571q-61 -15 -84.5 -35t-35.5 -61v-35z" />
<glyph unicode="B" horiz-adv-x="1328" d="M29 0h1209q0 38 -18 85t-47 96.5t-65.5 96.5t-77.5 85h208q-6 38 -26.5 80.5t-79.5 115.5q-26 35 -65.5 70t-88 63t-102.5 47t-112 22h-735v-761zM272 161v439h451q18 -6 35 -15t44 -35q26 -26 40.5 -52.5t20.5 -44.5h-468v-146h339q32 0 64.5 -42.5t49.5 -103.5h-576z " />
<glyph unicode="C" horiz-adv-x="1281" d="M32 0h1162v176h-916v310q12 35 35 58.5t67 37.5h817v179h-954q-23 0 -57 -15t-66 -36.5t-57 -48t-31 -52.5v-41v-568z" />
<glyph unicode="D" horiz-adv-x="1281" d="M32 -3h954q23 0 57 14.5t66 36.5t57 48.5t31 52.5v41v568h-1165v-761zM263 176v406h688v-310q-12 -35 -35.5 -58.5t-67.5 -37.5h-585z" />
<glyph unicode="E" horiz-adv-x="1322" d="M15 0q0 38 16 85t45 95t67 96.5t79 86.5h-38h-169q6 38 26 83.5t79 115.5q26 32 64 67t88 63t105.5 47t111.5 22h722v-161h-681q-18 -6 -35.5 -15t-43.5 -35t-38 -46.5t-18 -50.5h728v-146h-605q-32 0 -64.5 -42.5t-49.5 -103.5h834v-161h-1223z" />
<glyph unicode="F" horiz-adv-x="1299" d="M15 3l14 -3h243v307h939v146h-816q6 29 17.5 50t38.5 47q26 26 43.5 35t35.5 15h681v161h-722q-56 -3 -111.5 -22t-105.5 -47t-88 -63t-64 -67q-59 -70 -79.5 -115.5t-25.5 -83.5v-360z" />
<glyph unicode="G" horiz-adv-x="1345" d="M32 0v609q6 26 31 52.5t57 48t65.5 36.5t57.5 15h954v-179h-817q-44 -15 -67 -38t-35 -58v-310h570q44 3 66 23t22 35q0 18 -11.5 45.5t-17.5 27.5h-348v146h547q32 0 61.5 -23t48.5 -58.5t30.5 -73.5t11.5 -64q0 -41 -16 -82t-44 -74.5t-68 -55.5q-36 -19 -79 -19h-12 l-44 -3h-963z" />
<glyph unicode="H" d="M29 0h246v761h-246v-761zM395 307h559v-307h246v761h-252v-308h-553v-146z" />
<glyph unicode="I" horiz-adv-x="386" d="M41 0h246v761h-246v-761z" />
<glyph unicode="J" horiz-adv-x="1053" d="M29 0h702q32 0 73.5 19t76.5 49.5t59.5 67.5t24.5 69v556h-248v-527q-23 -59 -108 -73h-580v-161z" />
<glyph unicode="K" horiz-adv-x="1369" d="M29 0h246v307l614 -307h425l-761 410l720 351h-313l-688 -308v308h-243v-761z" />
<glyph unicode="L" horiz-adv-x="1059" d="M29 205v556h249v-527q23 -59 108 -73h579v-161h-702q-32 0 -73 19t-76 49.5t-60 67.5t-25 69z" />
<glyph unicode="M" horiz-adv-x="1556" d="M32 0h246v582h237q61 -15 84.5 -35t35.5 -61v-486h234v582h249q61 -15 84.5 -35t35.5 -61v-486h234v603q-12 29 -37 58t-55.5 51t-63 35.5t-61.5 13.5h-401v-117q-67 64 -112.5 90.5t-89.5 26.5h-620v-761z" />
<glyph unicode="N" horiz-adv-x="1293" d="M32 0h246v582h570q61 -15 85 -35t35 -61v-486h234v603q-12 29 -38 58t-56.5 51t-63 35.5t-58.5 13.5h-954v-761z" />
<glyph unicode="O" d="M32 0v568v41q6 26 31 52.5t57 48t65.5 36.5t57.5 15h954v-615q-9 -23 -32.5 -48t-52.5 -47t-60 -36.5t-51 -14.5h-6h-963zM278 176h570q61 15 85 35t32 67v304h-585q-44 -15 -67 -38t-35 -58v-310z" />
<glyph unicode="P" horiz-adv-x="1328" d="M29 0h243v600h451q12 -3 35 -16t45 -31t41 -42.5t25 -57.5h-474v-146h843v56q-6 38 -23.5 83.5t-79.5 115.5q-26 35 -67 68.5t-89.5 61.5t-102.5 47t-112 22h-735v-761z" />
<glyph unicode="Q" horiz-adv-x="1281" d="M32 0v568v41q6 26 31 52.5t57 48t65.5 36.5t57.5 15h954v-615q-9 -23 -32.5 -48t-52.5 -47t-60 -36.5t-51 -14.5h-6h-963zM278 176h439v169h246l2 237h-585q-44 -15 -67 -38t-35 -58v-310z" />
<glyph unicode="R" horiz-adv-x="1322" d="M29 0h240v600h454q18 -6 35 -15t44 -35q26 -26 40.5 -52.5t20.5 -44.5h-468v-146h339q20 0 36.5 -11.5t31 -30.5t30.5 -38t31 -34q23 -32 85 -193h290q0 38 -18 85t-47 96.5t-65.5 96.5t-77.5 85h208q-6 38 -26.5 83.5t-79.5 115.5q-29 32 -67 67t-86.5 63t-102.5 47 t-112 22h-735v-761z" />
<glyph unicode="S" horiz-adv-x="1339" d="M-167 0v164h1068q12 3 23.5 29t11.5 41q0 18 -11.5 45.5t-17.5 27.5h-866q0 88 29 170t83.5 145t129 101t168.5 38h713v-161h-713l-25 -25t-43 -48q-9 -15 -13 -24t-4 -20q0 -6 11 -30h729q32 0 61.5 -23t48.5 -58.5t30.5 -73.5t11.5 -64q0 -41 -16 -82t-44 -74.5 t-66 -55.5t-82 -22h-1217z" />
<glyph unicode="T" horiz-adv-x="1053" d="M29 600v161h702q32 0 73.5 -20.5t76.5 -50t59.5 -66t24.5 -68.5v-556h-248v527q-23 56 -108 73h-580z" />
<glyph unicode="U" d="M29 146q9 -23 35.5 -49.5t57 -48.5t61.5 -36q26 -12 44 -13q4 0 7 1h966v761h-249v-585h-571q-61 15 -84.5 35t-32.5 67v483h-234v-615z" />
<glyph unicode="V" horiz-adv-x="1339" d="M29 146q9 -23 35.5 -49.5t57 -48.5t61.5 -36q26 -12 44 -13q4 0 7 1h328l705 761h-316l-556 -585q-38 6 -61.5 14.5t-36.5 20t-20.5 28t-13.5 39.5v483h-234v-615z" />
<glyph unicode="W" horiz-adv-x="1556" d="M32 0v761h246v-583h237q61 15 84.5 35.5t35.5 61.5v486h234v-583h249q61 15 84.5 35.5t35.5 61.5v486h234v-603q-12 -29 -37 -57t-55.5 -50t-64.5 -36.5t-60 -14.5h-401v117q-67 -59 -114 -88t-88 -29h-620z" />
<glyph unicode="X" horiz-adv-x="1392" d="M29 0h310l275 228l275 -228h425l-468 410l427 351h-313l-278 -234l-264 234h-389l422 -392z" />
<glyph unicode="Y" horiz-adv-x="1328" d="M29 761h290q32 -82 52.5 -130.5t32.5 -62.5q15 -15 29.5 -34t30.5 -38t33.5 -31t34.5 -12h340v-146h-468q-111 35 -167 91q-41 38 -77.5 85t-66 96.5t-47 96.5t-17.5 85zM97 0v161h898v600h243v-761h-1141z" />
<glyph unicode="Z" horiz-adv-x="1328" d="M26 234q0 -41 16.5 -82t45.5 -74.5t65.5 -55.5t80.5 -22h1217v164h-1068q-12 3 -23.5 29t-11.5 41q0 18 12 45.5t17 27.5h866q0 88 -29 170t-83 145t-130 101t-167 38h-714v-161h714l25 -25t42 -48q9 -15 13.5 -24t4.5 -20q0 -9 -12 -30h-729q-35 0 -62.5 -23 t-46.5 -58.5t-31 -73.5t-12 -64z" />
<glyph unicode="[" horiz-adv-x="427" d="M32 0h302v173l-71 3v406h71v176h-302v-758z" />
<glyph unicode="\" horiz-adv-x="1398" d="M29 761h313l913 -746l18 -15h-310z" />
<glyph unicode="]" horiz-adv-x="427" d="M32 0v173l70 3v406h-70v176h302v-758h-302z" />
<glyph unicode="^" horiz-adv-x="649" d="M26 439l246 322h6l275 -322h-199l-59 105l-70 -105h-199z" />
<glyph unicode="_" horiz-adv-x="784" d="M-9 -108h808v-129h-808v129z" />
<glyph unicode="`" horiz-adv-x="374" d="M32 585v176h246v-176h-105l58 -140h-134z" />
<glyph unicode="a" horiz-adv-x="1281" d="M32 0v603q12 29 37 58t57 51t64 35.5t59 13.5h953v-761h-245v193h-691v-193h-234zM266 339h691v243h-571q-61 -15 -84.5 -35t-35.5 -61v-147z" />
<glyph unicode="b" horiz-adv-x="1322" d="M29 0h1209q0 38 -18 85t-47 96.5t-65.5 96.5t-77.5 85h208q-6 38 -26.5 80.5t-79.5 115.5q-26 35 -65.5 70t-88 63t-102.5 47t-112 22h-735v-761zM269 453v147h454q18 -6 35 -15t44 -35q26 -26 40.5 -52.5t20.5 -44.5h-594zM272 161v146h462q32 0 64.5 -42.5t49.5 -103.5 h-576z" />
<glyph unicode="c" horiz-adv-x="1275" d="M32 0h1162v176h-916v310q12 35 35 58.5t67 37.5h817v179h-954q-23 0 -57 -15t-66 -36.5t-57 -48t-31 -52.5v-41v-568z" />
<glyph unicode="d" horiz-adv-x="1275" d="M32 0v761h954q23 0 57 -15t66 -36.5t57 -48t31 -52.5v-41v-568h-1165zM263 176h688v310q-12 35 -35.5 58.5t-67.5 37.5h-585v-406z" />
<glyph unicode="e" horiz-adv-x="1322" d="M15 0h1223v161l-846 3q59 114 126 143h605v146h-728q6 29 17.5 50t38.5 47q26 26 43.5 35t35.5 15h681v161h-722q-56 -3 -111.5 -22t-105.5 -47t-88 -63t-64 -67q-59 -70 -79.5 -115.5t-25.5 -83.5h169h38q-41 -38 -79 -86.5t-67 -96.5t-45 -95t-16 -85z" />
<glyph unicode="f" horiz-adv-x="1299" d="M15 3v360q6 38 26 83.5t79 115.5q26 32 64 67t88 63t105.5 47t111.5 22h722v-161h-681q-18 -6 -35.5 -15t-49.5 -26q-32 -15 -61.5 -41t-47.5 -62h875v-149h-939v-307h-243z" />
<glyph unicode="g" horiz-adv-x="1339" d="M32 217v392q6 26 31 52.5t57 48t65.5 36.5t57.5 15h954v-179h-817q-44 -15 -67 -38t-35 -58v-223q6 -35 26.5 -52.5t78.5 -34.5h465q44 3 66 23t22 35q0 18 -11.5 45.5t-17.5 27.5h-348v146h547q32 0 61.5 -23t48.5 -58.5t30.5 -73.5t11.5 -64q0 -41 -16 -82t-44 -74.5 t-68 -55.5q-36 -19 -79 -19h-12l-44 -3h-758q-120 26 -158 82t-47 135z" />
<glyph unicode="h" d="M29 0h246v304h679v-304h246v761h-252v-308h-670v308h-249v-761z" />
<glyph unicode="i" horiz-adv-x="386" d="M41 0h246v761h-246v-761z" />
<glyph unicode="j" horiz-adv-x="1059" d="M29 0h702q32 0 73.5 19t76.5 49.5t59.5 67.5t24.5 69v556h-248v-527q-23 -59 -108 -73h-580v-161z" />
<glyph unicode="k" horiz-adv-x="1322" d="M29 0h246v304h459h3q18 0 34 -11.5t30.5 -29t30.5 -36.5t31 -34q23 -32 85 -193h290q0 38 -18 85t-47 96.5t-65.5 96.5t-77.5 85q-50 50 -79 64q0 6 11.5 20.5t27.5 36.5t34 47t29 48q32 50 50 97t18 85h-290q-61 -158 -85 -193q-12 -12 -22 -25t-20.5 -28t-28 -29.5 t-40.5 -29.5h-357v305h-249v-761z" />
<glyph unicode="l" horiz-adv-x="1053" d="M29 205v556h249v-527q23 -59 108 -73h579v-161h-702q-32 0 -73 19t-76 49.5t-60 67.5t-25 69z" />
<glyph unicode="m" horiz-adv-x="1556" d="M32 0h246v582h237q61 -15 84.5 -35t35.5 -61v-486h234v582h249q61 -15 84.5 -35t35.5 -61v-486h234v603q-12 29 -37 58t-55.5 51t-63 35.5t-61.5 13.5h-401v-117q-67 64 -112.5 90.5t-89.5 26.5h-620v-761z" />
<glyph unicode="n" horiz-adv-x="1322" d="M29 0h243v462q61 0 115.5 -16t104.5 -33l20 -9q53 -20 115.5 -55.5t136.5 -82.5q138 -102 234 -263h240v135v623h-246v-354q-123 143 -310.5 225t-403.5 129h-249v-761z" />
<glyph unicode="o" d="M32 0v568v41q6 26 31 52.5t57 48t65.5 36.5t57.5 15h954v-615q-9 -23 -32.5 -48t-52.5 -47t-60 -36.5t-51 -14.5h-6h-963zM278 176h570q61 15 85 35t32 67v304h-585q-44 -15 -67 -38t-35 -58v-310z" />
<glyph unicode="p" horiz-adv-x="1328" d="M29 0h243v307h966v56q-6 38 -23.5 83.5t-79.5 115.5q-26 35 -67 68.5t-89.5 61.5t-102.5 47t-112 22h-735v-761zM269 453v147h454q12 -3 35 -16t45 -31t41 -42.5t25 -57.5h-600z" />
<glyph unicode="q" d="M32 0v568v41q6 26 31 52.5t57 48t65.5 36.5t57.5 15h954v-615q-9 -23 -34 -49.5t-55.5 -48.5t-61.5 -36q-26 -13 -44 -13q-4 0 -7 1h-963zM278 176h509v146h181l-3 260h-585q-44 -15 -67 -38t-35 -58v-310z" />
<glyph unicode="r" horiz-adv-x="1328" d="M29 0h240v307h465q20 0 36.5 -11.5t31 -30.5t30.5 -38t31 -34q23 -32 85 -193h290q0 38 -18 85t-47 96.5t-65.5 96.5t-77.5 85h208q-6 38 -26.5 83.5t-79.5 115.5q-29 32 -67 67t-86.5 63t-102.5 47t-112 22h-735v-761zM269 453v147h454q18 -6 35 -15t44 -35 q26 -26 40.5 -52.5t20.5 -44.5h-594z" />
<glyph unicode="s" horiz-adv-x="1345" d="M29 0h1021q44 0 82 22t66 55.5t44 74.5t16 82q0 26 -11.5 64t-30.5 73.5t-48.5 58.5t-61.5 23h-729q-12 20 -11 30q0 12 4 20.5t13 23.5q18 23 43 48l25 25h713v161h-713q-94 0 -168.5 -38t-129 -101t-83.5 -145t-29 -170h866q6 0 17.5 -27.5t11.5 -45.5q0 -15 -11.5 -41 t-23.5 -26h-872v-167z" />
<glyph unicode="t" horiz-adv-x="1053" d="M29 600h340v-600h254v530v70h340v161h-934v-161z" />
<glyph unicode="u" d="M29 146q9 -23 35.5 -49.5t57 -48.5t61.5 -36q26 -12 44 -13q4 0 7 1h966v761h-249v-585h-571q-61 15 -84.5 35t-32.5 67v483h-234v-615z" />
<glyph unicode="v" horiz-adv-x="1351" d="M29 761h389l264 -334l278 334h313l-659 -767l-8 6z" />
<glyph unicode="w" horiz-adv-x="1556" d="M32 0v761h246v-583h237q61 15 84.5 35.5t35.5 61.5v486h234v-583h249q61 15 84.5 35.5t35.5 61.5v486h234v-603q-12 -29 -37 -57t-55.5 -50t-64.5 -36.5t-60 -14.5h-401v117q-67 -59 -114 -88t-88 -29h-620z" />
<glyph unicode="x" horiz-adv-x="1398" d="M29 0l422 369l-422 392h389l264 -234l278 234h313l-427 -351l468 -410h-439l-261 228l-275 -228h-310z" />
<glyph unicode="y" horiz-adv-x="1328" d="M29 761h290q32 -82 52.5 -130.5t32.5 -62.5q15 -15 29.5 -34t30.5 -38t33.5 -31t34.5 -12h466v308h240v-761h-1141v161h898v149h-591q-108 29 -167 88q-41 38 -77.5 85t-66 96.5t-47 96.5t-17.5 85z" />
<glyph unicode="z" horiz-adv-x="1339" d="M29 594v167h1021q44 0 82 -22t66 -55.5t44 -76t16 -80.5q0 -29 -11.5 -66t-30.5 -72t-48.5 -58.5t-61.5 -23.5h-729q-12 -23 -11 -32q0 -9 4 -17.5t13 -23.5q18 -23 43 -48l25 -25h713v-161h-713q-94 0 -168.5 38t-129 101t-83.5 145t-29 169h866q3 0 7.5 7.5t10 20.5 t8.5 25t3 21q0 15 -11.5 41t-23.5 26h-872z" />
<glyph unicode="{" horiz-adv-x="550" d="M29 170q0 -35 25 -70.5t60 -66t76 -49.5t73 -19h182v161h-59q-88 18 -108 73v354q20 56 108 73h59v164h-182q-32 0 -73 -20.5t-76 -51t-60 -67.5t-25 -69v-199v-213z" />
<glyph unicode="|" horiz-adv-x="374" d="M41 -82v939h234v-939h-234z" />
<glyph unicode="}" horiz-adv-x="550" d="M29 -35v161h59q85 18 108 73v354q-23 56 -108 73h-59v164h182q32 0 73 -20.5t76 -51t60 -67.5t25 -69v-199v-213q0 -35 -25 -70.5t-60 -66t-76 -49.5t-73 -19h-182z" />
<glyph unicode="&#xad;" horiz-adv-x="661" d="M23 307v146h539v-146h-539z" />
<glyph unicode="&#x2000;" horiz-adv-x="682" />
<glyph unicode="&#x2001;" horiz-adv-x="1365" />
<glyph unicode="&#x2002;" horiz-adv-x="682" />
<glyph unicode="&#x2003;" horiz-adv-x="1365" />
<glyph unicode="&#x2004;" horiz-adv-x="455" />
<glyph unicode="&#x2005;" horiz-adv-x="341" />
<glyph unicode="&#x2006;" horiz-adv-x="227" />
<glyph unicode="&#x2007;" horiz-adv-x="227" />
<glyph unicode="&#x2008;" horiz-adv-x="170" />
<glyph unicode="&#x2009;" horiz-adv-x="273" />
<glyph unicode="&#x200a;" horiz-adv-x="75" />
<glyph unicode="&#x2010;" horiz-adv-x="661" d="M23 307v146h539v-146h-539z" />
<glyph unicode="&#x2011;" horiz-adv-x="661" d="M23 307v146h539v-146h-539z" />
<glyph unicode="&#x2012;" horiz-adv-x="661" d="M23 307v146h539v-146h-539z" />
<glyph unicode="&#x2013;" horiz-adv-x="1146" d="M23 307v146h1024v-146h-1024z" />
<glyph unicode="&#x2014;" horiz-adv-x="2170" d="M23 307v146h2048v-146h-2048z" />
<glyph unicode="&#x2018;" horiz-adv-x="374" d="M32 445v172l67 144h132l-58 -144h105v-172h-246z" />
<glyph unicode="&#x2019;" horiz-adv-x="374" d="M32 585h106l-59 -140h135l64 140v176h-246v-176z" />
<glyph unicode="&#x201c;" horiz-adv-x="690" d="M29 445v172l68 144h131l-55 -144h102v-172h-246zM351 445v172l67 144h132l-56 -144h103v-172h-246z" />
<glyph unicode="&#x201d;" horiz-adv-x="690" d="M32 585h106l-59 -140h135l64 140v176h-246v-176zM354 585h105l-58 -140h134l65 140v176h-246v-176z" />
<glyph unicode="&#x2026;" horiz-adv-x="1105" d="M32 0v176h246v-176h-246zM377 0v176h246v-176h-246zM734 0v176h246v-176h-246z" />
<glyph unicode="&#x202f;" horiz-adv-x="273" />
<glyph unicode="&#x205f;" horiz-adv-x="341" />
<glyph unicode="&#xe000;" horiz-adv-x="760" d="M0 0v761h761v-761h-761z" />
</font>
</defs>
</svg>
